<svg xmlns="http://www.w3.org/2000/svg" id="Layer_1" data-name="Layer 1" viewBox="0 0 60 60"><defs><style>.cls-1{fill:#2fd184}.cls-2{fill:#e9eded}.cls-3{fill:#e1e5e5}.cls-4{fill:#d0d4d4}.cls-5{fill:#f1f5f5}</style></defs><title>icon-xrp-secure</title><path d="M20,0A20,20,0,0,0,40,20V0Z" class="cls-1"/><path d="M60,40V20H40A20,20,0,0,0,60,40Z" class="cls-2"/><rect width="20" height="20" x="40" class="cls-3"/><polygon points="20 40 20 20 0 20 0 40 .5 40 20 40" class="cls-1"/><polygon points="30 40 20 40 20 60 40 60 40 40 30 40" class="cls-4"/><circle cx="10" cy="10" r="10" class="cls-3"/><circle cx="50" cy="50" r="10" class="cls-1"/><path d="M20,20V40H40A20,20,0,0,0,20,20Z" class="cls-5"/><path d="M20,60H0V40A20,20,0,0,1,20,60Z" class="cls-2"/></svg>