<svg xmlns="http://www.w3.org/2000/svg" id="Layer_1" data-name="Layer 1" viewBox="0 0 60 60"><defs><style>.cls-1{fill:#e9eded}.cls-2{fill:#2fd184}.cls-3{fill:#d0d4d4}.cls-4{fill:#e1e5e5}.cls-5{fill:#f1f5f5}</style></defs><title>icon-xrp-modern-smart-contracts</title><polygon points="10 10 30 10 40 0 0 0 0 40 10 30 10 10" class="cls-1"/><polygon points="50 50 30 50 20 60 60 60 60 20 50 30 50 50" class="cls-2"/><polygon points="40 30 50 30 60 20 40 20 40 30" class="cls-2"/><polygon points="20 40 20 60 30 50 30 40 30 30 20 40" class="cls-2"/><rect width="10" height="10" x="20" y="20" class="cls-2"/><rect width="10" height="10" x="30" y="30" class="cls-3"/><polygon points="30 20 30 10 40 0 40 20 30 20" class="cls-3"/><polygon points="30 30 40 30 40 20 30 30" class="cls-2"/><polygon points="20 40 0 40 10 30 20 30 20 40" class="cls-4"/><polygon points="20 40 30 30 20 30 20 40" class="cls-5"/><polygon points="30 20 30 30 40 20 30 20" class="cls-5"/></svg>