<svg xmlns="http://www.w3.org/2000/svg" id="Layer_1" data-name="Layer 1" viewBox="0 0 60 60"><defs><style>.cls-1{fill:none}.cls-2{fill:#e1e5e5}.cls-3{fill:#e9eded}.cls-4{fill:#fff}.cls-5{fill:#8ecdd3}.cls-6{fill:#d0d4d4}.cls-7{fill:#1a2e46}.cls-8{fill:#2fd184}</style></defs><title>icon-xrp-censorship-resistant</title><polygon points="30 0 30 0 30 0 30 0" class="cls-1"/><rect x="42.73" y="42.73" class="cls-2"/><path d="M37,46.59a18.05,18.05,0,0,1-17.07-1.66,18.81,18.81,0,0,1-2.67-2.2L8.79,51.21a30,30,0,0,0,42.42,0l-8.48-8.48A18.21,18.21,0,0,1,37,46.59Z" class="cls-2"/><path d="M30,0A29.89,29.89,0,0,0,8.79,8.79l8.48,8.48h0a18.19,18.19,0,0,1,2.66-2.2A18.06,18.06,0,0,1,37,13.41a18.21,18.21,0,0,1,5.72,3.86l8.48-8.48A29.89,29.89,0,0,0,30,0Z" class="cls-3"/><path d="M51.21,8.79l-8.48,8.48h0a18,18,0,0,1,0,25.46h0l8.48,8.48a30,30,0,0,0,0-42.42Z" class="cls-4"/><path d="M12,30h0a17.92,17.92,0,0,1,5.27-12.72L8.79,8.79a30,30,0,0,0,0,42.42l8.48-8.48A17.94,17.94,0,0,1,12,30Z" class="cls-2"/><path d="M26.37,47.63a17.92,17.92,0,0,1-6.43-2.7A17.92,17.92,0,0,0,26.37,47.63Z" class="cls-5"/><path d="M19.94,44.93a18.81,18.81,0,0,1-2.67-2.2A18.81,18.81,0,0,0,19.94,44.93Z" class="cls-5"/><path d="M37.49,30A7.52,7.52,0,0,1,35.3,35.3l7.43,7.43a18,18,0,0,0,0-25.46L35.3,24.7A7.43,7.43,0,0,1,37.49,30Z" class="cls-3"/><path d="M24.69,35.3l-7.42,7.42A18,18,0,0,1,12,30h0a17.94,17.94,0,0,0,5.27,12.73L24.7,35.3Z" class="cls-5"/><path d="M37,46.59a18.21,18.21,0,0,0,5.72-3.86h0A18.21,18.21,0,0,1,37,46.59Z" class="cls-2"/><path d="M35.3,35.3A7.52,7.52,0,0,1,30,37.49,7.43,7.43,0,0,1,24.7,35.3l-7.43,7.43a18.81,18.81,0,0,0,2.67,2.2A18.06,18.06,0,0,0,37,46.59a18.21,18.21,0,0,0,5.72-3.86Z" class="cls-6"/><polygon points="35.3 35.3 42.73 42.73 42.73 42.73 35.3 35.3 35.3 35.3" class="cls-2"/><path d="M24.69,24.69a7.48,7.48,0,0,1,10.61,0l7.43-7.43A18.21,18.21,0,0,0,37,13.41a18.05,18.05,0,0,0-17.07,1.66,18.19,18.19,0,0,0-2.66,2.2Z" class="cls-6"/><polygon points="30 30 24.69 35.3 24.7 35.3 30 30 30 30" class="cls-4"/><polygon points="30 30 30 30 30 30 30 30" class="cls-4"/><path d="M17.27,17.27A17.92,17.92,0,0,0,12,30h0a18,18,0,0,1,5.27-12.73Z" class="cls-7"/><polygon points="17.27 17.27 17.27 17.27 24.69 24.69 24.69 24.69 17.27 17.27" class="cls-7"/><polygon points="24.69 24.69 17.28 17.27 17.27 17.27 24.69 24.69 24.69 24.69" class="cls-7"/><polygon points="30 30 24.69 24.69 24.69 24.69 30 30 30 30" class="cls-7"/><polygon points="30 30 30 29.99 24.69 24.69 24.69 24.69 30 30" class="cls-7"/><path d="M17.27,17.27a18,18,0,0,0,0,25.45l7.42-7.42L30,30Z" class="cls-8"/></svg>