<svg xmlns="http://www.w3.org/2000/svg" id="Layer_1" data-name="Layer 1" viewBox="0 0 60 60"><defs><style>.cls-1{fill:#e9eded}.cls-2{fill:#d0d4d4}.cls-3{fill:#e1e5e5}.cls-4{fill:#2fd184}</style></defs><title>icon-xrp-fast-algorithm</title><polygon points="45 15 45 30 30 45 30 60 60 30 60 0 45 15" class="cls-1"/><polygon points="0 30 0 60 15 45 15 30 30 15 30 0 0 30" class="cls-2"/><polygon points="30 15 30 30 45 15 45 0 30 15" class="cls-3"/><polygon points="15 60 30 45 30 30 15 45 15 60" class="cls-3"/><polygon points="15 30 15 45 30 30 30 15 15 30" class="cls-4"/><polygon points="30 30 30 45 45 30 45 15 30 30" class="cls-4"/></svg>