<svg xmlns="http://www.w3.org/2000/svg" xmlns:xlink="http://www.w3.org/1999/xlink" width="1360" height="970" fill="#000" fill-opacity="1" stroke="#000" stroke-dasharray="none" stroke-dashoffset="0" stroke-linecap="square" stroke-linejoin="miter" stroke-miterlimit="10" stroke-opacity="1" stroke-width="1" color-interpolation="auto" color-rendering="auto" font-family="'Dialog'" font-size="12" font-style="normal" font-weight="normal" image-rendering="auto" shape-rendering="auto" text-rendering="auto" viewBox="-10 -10 1360 970"><g><defs id="defs1"><clipPath id="clipPath1" clipPathUnits="userSpaceOnUse"><path d="M0 0 L2147483647 0 L2147483647 2147483647 L0 2147483647 L0 0 Z"/></clipPath><clipPath id="clipPath2" clipPathUnits="userSpaceOnUse"><path d="M0 0 L0 230 L230 230 L230 0 Z"/></clipPath><clipPath id="clipPath3" clipPathUnits="userSpaceOnUse"><path d="M0 0 L0 100 L180 100 L180 0 Z"/></clipPath><clipPath id="clipPath4" clipPathUnits="userSpaceOnUse"><path d="M0 0 L0 20 L20 20 L20 0 Z"/></clipPath><clipPath id="clipPath5" clipPathUnits="userSpaceOnUse"><path d="M0 0 L0 30 L60 30 L60 0 Z"/></clipPath><clipPath id="clipPath6" clipPathUnits="userSpaceOnUse"><path d="M0 0 L0 40 L40 40 L40 0 Z"/></clipPath><clipPath id="clipPath7" clipPathUnits="userSpaceOnUse"><path d="M0 0 L0 80 L180 80 L180 0 Z"/></clipPath><clipPath id="clipPath8" clipPathUnits="userSpaceOnUse"><path d="M0 0 L0 30 L190 30 L190 0 Z"/></clipPath><clipPath id="clipPath9" clipPathUnits="userSpaceOnUse"><path d="M0 0 L0 50 L180 50 L180 0 Z"/></clipPath><clipPath id="clipPath10" clipPathUnits="userSpaceOnUse"><path d="M0 0 L0 70 L180 70 L180 0 Z"/></clipPath><clipPath id="clipPath11" clipPathUnits="userSpaceOnUse"><path d="M0 0 L0 60 L180 60 L180 0 Z"/></clipPath><clipPath id="clipPath12" clipPathUnits="userSpaceOnUse"><path d="M0 0 L0 90 L140 90 L140 0 Z"/></clipPath><clipPath id="clipPath13" clipPathUnits="userSpaceOnUse"><path d="M0 0 L0 30 L160 30 L160 0 Z"/></clipPath><clipPath id="clipPath14" clipPathUnits="userSpaceOnUse"><path d="M0 0 L0 130 L180 130 L180 0 Z"/></clipPath><clipPath id="clipPath15" clipPathUnits="userSpaceOnUse"><path d="M0 0 L0 110 L180 110 L180 0 Z"/></clipPath><clipPath id="clipPath16" clipPathUnits="userSpaceOnUse"><path d="M0 0 L0 90 L180 90 L180 0 Z"/></clipPath><clipPath id="clipPath17" clipPathUnits="userSpaceOnUse"><path d="M0 0 L0 310 L830 310 L830 0 Z"/></clipPath><clipPath id="clipPath18" clipPathUnits="userSpaceOnUse"><path d="M0 0 L0 160 L320 160 L320 0 Z"/></clipPath><clipPath id="clipPath19" clipPathUnits="userSpaceOnUse"><path d="M0 0 L0 130 L30 130 L30 0 Z"/></clipPath><clipPath id="clipPath20" clipPathUnits="userSpaceOnUse"><path d="M0 0 L0 60 L230 60 L230 0 Z"/></clipPath><clipPath id="clipPath21" clipPathUnits="userSpaceOnUse"><path d="M0 0 L0 130 L150 130 L150 0 Z"/></clipPath><clipPath id="clipPath22" clipPathUnits="userSpaceOnUse"><path d="M0 0 L0 30 L100 30 L100 0 Z"/></clipPath><clipPath id="clipPath23" clipPathUnits="userSpaceOnUse"><path d="M0 0 L0 60 L130 60 L130 0 Z"/></clipPath><clipPath id="clipPath24" clipPathUnits="userSpaceOnUse"><path d="M0 0 L0 60 L240 60 L240 0 Z"/></clipPath><clipPath id="clipPath25" clipPathUnits="userSpaceOnUse"><path d="M0 0 L0 30 L90 30 L90 0 Z"/></clipPath><clipPath id="clipPath26" clipPathUnits="userSpaceOnUse"><path d="M0 0 L0 140 L430 140 L430 0 Z"/></clipPath><clipPath id="clipPath27" clipPathUnits="userSpaceOnUse"><path d="M0 0 L0 330 L90 330 L90 0 Z"/></clipPath><clipPath id="clipPath28" clipPathUnits="userSpaceOnUse"><path d="M0 0 L0 130 L230 130 L230 0 Z"/></clipPath><clipPath id="clipPath29" clipPathUnits="userSpaceOnUse"><path d="M0 0 L0 30 L130 30 L130 0 Z"/></clipPath><clipPath id="clipPath30" clipPathUnits="userSpaceOnUse"><path d="M0 0 L0 160 L490 160 L490 0 Z"/></clipPath><clipPath id="clipPath31" clipPathUnits="userSpaceOnUse"><path d="M0 0 L0 50 L240 50 L240 0 Z"/></clipPath><clipPath id="clipPath32" clipPathUnits="userSpaceOnUse"><path d="M0 0 L0 310 L640 310 L640 0 Z"/></clipPath><clipPath id="clipPath33" clipPathUnits="userSpaceOnUse"><path d="M0 0 L0 60 L30 60 L30 0 Z"/></clipPath><clipPath id="clipPath34" clipPathUnits="userSpaceOnUse"><path d="M0 0 L0 120 L250 120 L250 0 Z"/></clipPath><clipPath id="clipPath35" clipPathUnits="userSpaceOnUse"><path d="M0 0 L0 30 L80 30 L80 0 Z"/></clipPath><clipPath id="clipPath36" clipPathUnits="userSpaceOnUse"><path d="M0 0 L0 30 L70 30 L70 0 Z"/></clipPath><clipPath id="clipPath37" clipPathUnits="userSpaceOnUse"><path d="M0 0 L0 70 L130 70 L130 0 Z"/></clipPath></defs><g fill="#FED74C" stroke="#FED74C"><path stroke="none" d="M0.5 0.5 L218.5 0.5 L229 12.5 L229 229 L0.5 229 Z" clip-path="url(#clipPath2)" transform="translate(1080,700)"/><path fill="none" stroke="#000" d="M0.5 0.5 L218.5 0.5 L229 12.5 L229 229 L0.5 229 Z" clip-path="url(#clipPath2)" transform="translate(1080,700)"/><path fill="none" stroke="#000" d="M218.5 0.5 L218.5 12.5 L229 12.5" clip-path="url(#clipPath2)" transform="translate(1080,700)"/></g><g font-family="sans-serif" font-size="14"><text x="5" y="18.109" stroke="none" clip-path="url(#clipPath2)" transform="translate(1080,700)" xml:space="preserve">Some reasons an unknown</text><text x="5" y="34.219" stroke="none" clip-path="url(#clipPath2)" transform="translate(1080,700)" xml:space="preserve">transaction may have been</text><text x="5" y="50.328" stroke="none" clip-path="url(#clipPath2)" transform="translate(1080,700)" xml:space="preserve">validated:</text><text x="5" y="66.438" stroke="none" clip-path="url(#clipPath2)" transform="translate(1080,700)" xml:space="preserve">- The transaction was</text><text x="5" y="82.547" stroke="none" clip-path="url(#clipPath2)" transform="translate(1080,700)" xml:space="preserve">malleable and succeeded with</text><text x="5" y="98.656" stroke="none" clip-path="url(#clipPath2)" transform="translate(1080,700)" xml:space="preserve">a different hash.</text><text x="5" y="114.766" stroke="none" clip-path="url(#clipPath2)" transform="translate(1080,700)" xml:space="preserve">- A different program or</text><text x="5" y="130.875" stroke="none" clip-path="url(#clipPath2)" transform="translate(1080,700)" xml:space="preserve">person with your secret key is</text><text x="5" y="146.984" stroke="none" clip-path="url(#clipPath2)" transform="translate(1080,700)" xml:space="preserve">also sending transactions</text><text x="5" y="163.094" stroke="none" clip-path="url(#clipPath2)" transform="translate(1080,700)" xml:space="preserve">from the same account.</text><text x="5" y="179.203" stroke="none" clip-path="url(#clipPath2)" transform="translate(1080,700)" xml:space="preserve">- You previously sent a</text><text x="5" y="195.313" stroke="none" clip-path="url(#clipPath2)" transform="translate(1080,700)" xml:space="preserve">transaction, but lost your</text><text x="5" y="211.422" stroke="none" clip-path="url(#clipPath2)" transform="translate(1080,700)" xml:space="preserve">record of it.</text></g><g fill="#FFF" fill-opacity="0" stroke="#FFF" stroke-opacity="0" transform="translate(650,220)"><rect width="178.5" height="98.5" x=".5" y=".5" stroke="none" clip-path="url(#clipPath3)"/></g><g transform="translate(650,220)"><rect width="178.5" height="98.5" x=".5" y=".5" fill="none" clip-path="url(#clipPath3)"/><text x="17" y="18.109" stroke="none" clip-path="url(#clipPath3)" font-family="sans-serif" font-size="14" xml:space="preserve">Repeat the following</text><text x="40" y="34.219" stroke="none" clip-path="url(#clipPath3)" font-family="sans-serif" font-size="14" xml:space="preserve">steps for each</text><text x="15" y="50.328" stroke="none" clip-path="url(#clipPath3)" font-family="sans-serif" font-size="14" xml:space="preserve">transaction without a</text><text x="41" y="66.438" stroke="none" clip-path="url(#clipPath3)" font-family="sans-serif" font-size="14" xml:space="preserve">final outcome</text><text x="56" y="82.547" stroke="none" clip-path="url(#clipPath3)" font-family="sans-serif" font-size="14" xml:space="preserve">recorded.</text></g><g fill="#FFF" fill-opacity="0" stroke="#FFF" stroke-opacity="0" transform="translate(420,390)"><circle cx="9.75" cy="9.75" r="9.25" stroke="none" clip-path="url(#clipPath4)"/></g><g transform="translate(420,390)"><circle cx="9.75" cy="9.75" r="9.25" fill="none" clip-path="url(#clipPath4)"/><circle cx="10" cy="10" r="6.227" stroke="none" clip-path="url(#clipPath4)"/></g><g fill="#FFF" fill-opacity="0" stroke="#FFF" stroke-opacity="0" transform="translate(420,390)"><circle cx="10" cy="10" r="6.227" fill="none" clip-path="url(#clipPath4)"/></g><g font-family="sans-serif" font-size="14"><text x="5" y="18.109" stroke="none" clip-path="url(#clipPath5)" transform="translate(410,410)" xml:space="preserve">Done</text></g><g fill="#FFF" fill-opacity="0" stroke="#FFF" stroke-opacity="0"><path stroke="none" d="M20.5 1.5 L39 20.5 L20.5 39 L1.5 20.5 Z" clip-path="url(#clipPath6)" transform="translate(410,250)"/></g><g><path fill="none" d="M20.5 1.5 L39 20.5 L20.5 39 L1.5 20.5 Z" clip-path="url(#clipPath6)" transform="translate(410,250)"/></g><g fill="#FFF" fill-opacity="0" stroke="#FFF" stroke-opacity="0" transform="translate(160,240)"><rect width="178.5" height="78.5" x=".5" y=".5" stroke="none" clip-path="url(#clipPath7)"/></g><g transform="translate(160,240)"><rect width="178.5" height="78.5" x=".5" y=".5" fill="none" clip-path="url(#clipPath7)"/><text x="31" y="18.109" stroke="none" clip-path="url(#clipPath7)" font-family="sans-serif" font-size="14" xml:space="preserve">Check persistent</text><text x="51" y="34.219" stroke="none" clip-path="url(#clipPath7)" font-family="sans-serif" font-size="14" xml:space="preserve">storage for</text><text x="11" y="50.328" stroke="none" clip-path="url(#clipPath7)" font-family="sans-serif" font-size="14" xml:space="preserve">transactions without a</text><text x="16" y="66.438" stroke="none" clip-path="url(#clipPath7)" font-family="sans-serif" font-size="14" xml:space="preserve">final outcome saved.</text></g><g fill="#FFF" fill-opacity="0" stroke="#FFF" stroke-opacity="0" transform="translate(880,700)"><rect width="178.5" height="78.5" x=".5" y=".5" stroke="none" clip-path="url(#clipPath7)"/></g><g transform="translate(880,700)"><rect width="178.5" height="78.5" x=".5" y=".5" fill="none" clip-path="url(#clipPath7)"/><text x="15" y="18.109" stroke="none" clip-path="url(#clipPath7)" font-family="sans-serif" font-size="14" xml:space="preserve">Unknown transaction</text><text x="20" y="34.219" stroke="none" clip-path="url(#clipPath7)" font-family="sans-serif" font-size="14" xml:space="preserve">has been validated.</text><text x="19" y="50.328" stroke="none" clip-path="url(#clipPath7)" font-family="sans-serif" font-size="14" xml:space="preserve">Manual intervention</text><text x="36" y="66.438" stroke="none" clip-path="url(#clipPath7)" font-family="sans-serif" font-size="14" xml:space="preserve">recommended.</text></g><g font-family="sans-serif" font-size="14"><text x="5" y="18.109" stroke="none" clip-path="url(#clipPath8)" transform="translate(10,190)" xml:space="preserve">Recover from outage</text></g><g transform="translate(50,220)"><circle cx="10.25" cy="10.25" r="8.75" stroke="none" clip-path="url(#clipPath4)"/><circle cx="10.25" cy="10.25" r="8.75" fill="none" clip-path="url(#clipPath4)"/></g><g font-family="sans-serif" font-size="14"><text x="5" y="18.109" stroke="none" clip-path="url(#clipPath5)" transform="translate(680,900)" xml:space="preserve">Done</text></g><g fill="#FFF" fill-opacity="0" stroke="#FFF" stroke-opacity="0" transform="translate(450,870)"><rect width="178.5" height="48.5" x=".5" y=".5" stroke="none" clip-path="url(#clipPath9)"/></g><g transform="translate(450,870)"><rect width="178.5" height="48.5" x=".5" y=".5" fill="none" clip-path="url(#clipPath9)"/><text x="13" y="18.109" stroke="none" clip-path="url(#clipPath9)" font-family="sans-serif" font-size="14" xml:space="preserve">Save final outcome to</text><text x="23" y="34.219" stroke="none" clip-path="url(#clipPath9)" font-family="sans-serif" font-size="14" xml:space="preserve">persistent storage.</text></g><g fill="#FFF" fill-opacity="0" stroke="#FFF" stroke-opacity="0" transform="translate(200,860)"><rect width="178.5" height="78.5" x=".5" y=".5" stroke="none" clip-path="url(#clipPath7)"/></g><g transform="translate(200,860)"><rect width="178.5" height="78.5" x=".5" y=".5" fill="none" clip-path="url(#clipPath7)"/><text x="20" y="18.109" stroke="none" clip-path="url(#clipPath7)" font-family="sans-serif" font-size="14" xml:space="preserve">Transaction has not</text><text x="16" y="34.219" stroke="none" clip-path="url(#clipPath7)" font-family="sans-serif" font-size="14" xml:space="preserve">been included in any</text><text x="17" y="50.328" stroke="none" clip-path="url(#clipPath7)" font-family="sans-serif" font-size="14" xml:space="preserve">validated ledger and</text><text x="42" y="66.438" stroke="none" clip-path="url(#clipPath7)" font-family="sans-serif" font-size="14" xml:space="preserve">never will be.</text></g><g fill="#FFF" fill-opacity="0" stroke="#FFF" stroke-opacity="0" transform="translate(690,880)"><circle cx="9.75" cy="9.75" r="9.25" stroke="none" clip-path="url(#clipPath4)"/></g><g transform="translate(690,880)"><circle cx="9.75" cy="9.75" r="9.25" fill="none" clip-path="url(#clipPath4)"/><path fill="none" d="M2.9191 3.6667 L17.0809 16.3333" clip-path="url(#clipPath4)"/><path fill="none" d="M2.9191 16.3333 L17.0809 3.6667" clip-path="url(#clipPath4)"/></g><g fill="#FFF" fill-opacity="0" stroke="#FFF" stroke-opacity="0" transform="translate(350,700)"><rect width="178.5" height="68.5" x=".5" y=".5" stroke="none" clip-path="url(#clipPath10)"/></g><g transform="translate(350,700)"><rect width="178.5" height="68.5" x=".5" y=".5" fill="none" clip-path="url(#clipPath10)"/><text x="32" y="18.109" stroke="none" clip-path="url(#clipPath10)" font-family="sans-serif" font-size="14" xml:space="preserve">Look up account</text><text x="17" y="34.219" stroke="none" clip-path="url(#clipPath10)" font-family="sans-serif" font-size="14" xml:space="preserve">Sequence number in</text><text x="8" y="50.328" stroke="none" clip-path="url(#clipPath10)" font-family="sans-serif" font-size="14" xml:space="preserve">latest validated ledger.</text></g><g fill="#FFF" fill-opacity="0" stroke="#FFF" stroke-opacity="0" transform="translate(1110,530)"><rect width="178.5" height="58.5" x=".5" y=".5" stroke="none" clip-path="url(#clipPath11)"/></g><g transform="translate(1110,530)"><rect width="178.5" height="58.5" x=".5" y=".5" fill="none" clip-path="url(#clipPath11)"/><text x="14" y="18.109" stroke="none" clip-path="url(#clipPath11)" font-family="sans-serif" font-size="14" xml:space="preserve">Wait for gaps to fill in</text><text x="29" y="34.219" stroke="none" clip-path="url(#clipPath11)" font-family="sans-serif" font-size="14" xml:space="preserve">or ask a different</text><text x="65" y="50.328" stroke="none" clip-path="url(#clipPath11)" font-family="sans-serif" font-size="14" xml:space="preserve">server.</text></g><g fill="#FFF" fill-opacity="0" stroke="#FFF" stroke-opacity="0"><path stroke="none" d="M20.5 1.5 L39 20.5 L20.5 39 L1.5 20.5 Z" clip-path="url(#clipPath6)" transform="translate(630,710)"/></g><g><path fill="none" d="M20.5 1.5 L39 20.5 L20.5 39 L1.5 20.5 Z" clip-path="url(#clipPath6)" transform="translate(630,710)"/></g><g fill="#FFF" fill-opacity="0" stroke="#FFF" stroke-opacity="0"><path stroke="none" d="M20.5 1.5 L39 20.5 L20.5 39 L1.5 20.5 Z" clip-path="url(#clipPath6)" transform="translate(870,530)"/></g><g><path fill="none" d="M20.5 1.5 L39 20.5 L20.5 39 L1.5 20.5 Z" clip-path="url(#clipPath6)" transform="translate(870,530)"/></g><g fill="#FFF" fill-opacity="0" stroke="#FFF" stroke-opacity="0"><path stroke="none" d="M20.5 1.5 L39 20.5 L20.5 39 L1.5 20.5 Z" clip-path="url(#clipPath6)" transform="translate(620,530)"/></g><g><path fill="none" d="M20.5 1.5 L39 20.5 L20.5 39 L1.5 20.5 Z" clip-path="url(#clipPath6)" transform="translate(620,530)"/></g><g font-family="sans-serif" font-size="14"><text x="5" y="18.109" stroke="none" clip-path="url(#clipPath5)" transform="translate(150,760)" xml:space="preserve">Done</text></g><g fill="#FFF" fill-opacity="0" stroke="#FFF" stroke-opacity="0" transform="translate(160,740)"><circle cx="9.75" cy="9.75" r="9.25" stroke="none" clip-path="url(#clipPath4)"/></g><g transform="translate(160,740)"><circle cx="9.75" cy="9.75" r="9.25" fill="none" clip-path="url(#clipPath4)"/><circle cx="10" cy="10" r="6.227" stroke="none" clip-path="url(#clipPath4)"/></g><g fill="#FFF" fill-opacity="0" stroke="#FFF" stroke-opacity="0" transform="translate(160,740)"><circle cx="10" cy="10" r="6.227" fill="none" clip-path="url(#clipPath4)"/></g><g fill="#FFF" fill-opacity="0" stroke="#FFF" stroke-opacity="0" transform="translate(90,660)"><rect width="178.5" height="48.5" x=".5" y=".5" stroke="none" clip-path="url(#clipPath9)"/></g><g transform="translate(90,660)"><rect width="178.5" height="48.5" x=".5" y=".5" fill="none" clip-path="url(#clipPath9)"/><text x="13" y="18.109" stroke="none" clip-path="url(#clipPath9)" font-family="sans-serif" font-size="14" xml:space="preserve">Save final outcome to</text><text x="23" y="34.219" stroke="none" clip-path="url(#clipPath9)" font-family="sans-serif" font-size="14" xml:space="preserve">persistent storage.</text></g><g fill="#FFF" fill-opacity="0" stroke="#FFF" stroke-opacity="0"><path stroke="none" d="M20.5 1.5 L39 20.5 L20.5 39 L1.5 20.5 Z" clip-path="url(#clipPath6)" transform="translate(370,530)"/></g><g><path fill="none" d="M20.5 1.5 L39 20.5 L20.5 39 L1.5 20.5 Z" clip-path="url(#clipPath6)" transform="translate(370,530)"/></g><g fill="#FFF" fill-opacity="0" stroke="#FFF" stroke-opacity="0" transform="translate(90,530)"><rect width="178.5" height="48.5" x=".5" y=".5" stroke="none" clip-path="url(#clipPath9)"/></g><g transform="translate(90,530)"><rect width="178.5" height="48.5" x=".5" y=".5" fill="none" clip-path="url(#clipPath9)"/><text x="35" y="18.109" stroke="none" clip-path="url(#clipPath9)" font-family="sans-serif" font-size="14" xml:space="preserve">Check status of</text><text x="18" y="34.219" stroke="none" clip-path="url(#clipPath9)" font-family="sans-serif" font-size="14" xml:space="preserve">transaction by hash.</text></g><g fill="#FFF" fill-opacity="0" stroke="#FFF" stroke-opacity="0"><path stroke="none" d="M50.5 0.5 L90.5 40.5 L50.5 40.5 L90.5 0.5 Z" clip-path="url(#clipPath12)" transform="translate(1080,230)"/></g><g><path fill="none" d="M50.5 0.5 L90.5 40.5 L50.5 40.5 L90.5 0.5 Z" clip-path="url(#clipPath12)" transform="translate(1080,230)"/><text x="8" y="63.109" stroke="none" clip-path="url(#clipPath12)" font-family="sans-serif" font-size="14" transform="translate(1080,230)" xml:space="preserve">Wait ~4s for next</text><text x="12" y="79.219" stroke="none" clip-path="url(#clipPath12)" font-family="sans-serif" font-size="14" transform="translate(1080,230)" xml:space="preserve">validated ledger</text></g><g fill="#FFF" fill-opacity="0" stroke="#FFF" stroke-opacity="0" transform="translate(1070,80)"><rect width="178.5" height="48.5" x=".5" y=".5" stroke="none" clip-path="url(#clipPath9)"/></g><g transform="translate(1070,80)"><rect width="178.5" height="48.5" x=".5" y=".5" fill="none" clip-path="url(#clipPath9)"/><text x="21" y="18.109" stroke="none" clip-path="url(#clipPath9)" font-family="sans-serif" font-size="14" xml:space="preserve">Submit transaction.</text></g><g font-family="sans-serif" font-size="14"><text x="5" y="18.109" stroke="none" clip-path="url(#clipPath13)" transform="translate(10,10)" xml:space="preserve">New transaction</text></g><g fill="#FFF" fill-opacity="0" stroke="#FFF" stroke-opacity="0" transform="translate(840,50)"><rect width="178.5" height="128.5" x=".5" y=".5" stroke="none" clip-path="url(#clipPath14)"/></g><g transform="translate(840,50)"><rect width="178.5" height="128.5" x=".5" y=".5" fill="none" clip-path="url(#clipPath14)"/><text x="21" y="18.109" stroke="none" clip-path="url(#clipPath14)" font-family="sans-serif" font-size="14" xml:space="preserve">Save transaction to</text><text x="12" y="34.219" stroke="none" clip-path="url(#clipPath14)" font-family="sans-serif" font-size="14" xml:space="preserve">persistent storage. Be</text><text x="24" y="50.328" stroke="none" clip-path="url(#clipPath14)" font-family="sans-serif" font-size="14" xml:space="preserve">sure to include the</text><text x="31" y="66.438" stroke="none" clip-path="url(#clipPath14)" font-family="sans-serif" font-size="14" xml:space="preserve">hash, Sequence,</text><text x="14" y="82.547" stroke="none" clip-path="url(#clipPath14)" font-family="sans-serif" font-size="14" xml:space="preserve">LastLedgerSequence,</text><text x="28" y="98.656" stroke="none" clip-path="url(#clipPath14)" font-family="sans-serif" font-size="14" xml:space="preserve">and the validated</text><text x="43" y="114.766" stroke="none" clip-path="url(#clipPath14)" font-family="sans-serif" font-size="14" xml:space="preserve">ledger index.</text></g><g fill="#FFF" fill-opacity="0" stroke="#FFF" stroke-opacity="0" transform="translate(610,80)"><rect width="178.5" height="48.5" x=".5" y=".5" stroke="none" clip-path="url(#clipPath9)"/></g><g transform="translate(610,80)"><rect width="178.5" height="48.5" x=".5" y=".5" fill="none" clip-path="url(#clipPath9)"/><text x="30" y="18.109" stroke="none" clip-path="url(#clipPath9)" font-family="sans-serif" font-size="14" xml:space="preserve">Sign transaction.</text></g><g fill="#FFF" fill-opacity="0" stroke="#FFF" stroke-opacity="0" transform="translate(390,50)"><rect width="178.5" height="108.5" x=".5" y=".5" stroke="none" clip-path="url(#clipPath15)"/></g><g transform="translate(390,50)"><rect width="178.5" height="108.5" x=".5" y=".5" fill="none" clip-path="url(#clipPath15)"/><text x="14" y="18.109" stroke="none" clip-path="url(#clipPath15)" font-family="sans-serif" font-size="14" xml:space="preserve">Construct transaction</text><text x="38" y="34.219" stroke="none" clip-path="url(#clipPath15)" font-family="sans-serif" font-size="14" xml:space="preserve">JSON including</text><text x="40" y="50.328" stroke="none" clip-path="url(#clipPath15)" font-family="sans-serif" font-size="14" xml:space="preserve">Sequence and</text><text x="14" y="66.438" stroke="none" clip-path="url(#clipPath15)" font-family="sans-serif" font-size="14" xml:space="preserve">LastLedgerSequence.</text><text x="13" y="82.547" stroke="none" clip-path="url(#clipPath15)" font-family="sans-serif" font-size="14" xml:space="preserve">(LastLedgerSequence</text><text x="66" y="98.656" stroke="none" clip-path="url(#clipPath15)" font-family="sans-serif" font-size="14" xml:space="preserve">is &gt; A)</text></g><g transform="translate(50,40)"><circle cx="10.25" cy="10.25" r="8.75" stroke="none" clip-path="url(#clipPath4)"/><circle cx="10.25" cy="10.25" r="8.75" fill="none" clip-path="url(#clipPath4)"/></g><g fill="#FFF" fill-opacity="0" stroke="#FFF" stroke-opacity="0" transform="translate(160,60)"><rect width="178.5" height="88.5" x=".5" y=".5" stroke="none" clip-path="url(#clipPath16)"/></g><g transform="translate(160,60)"><rect width="178.5" height="88.5" x=".5" y=".5" fill="none" clip-path="url(#clipPath16)"/><text x="39" y="18.109" stroke="none" clip-path="url(#clipPath16)" font-family="sans-serif" font-size="14" xml:space="preserve">Find the latest</text><text x="9" y="34.219" stroke="none" clip-path="url(#clipPath16)" font-family="sans-serif" font-size="14" xml:space="preserve">validated ledger index.</text><text x="31" y="50.328" stroke="none" clip-path="url(#clipPath16)" font-family="sans-serif" font-size="14" xml:space="preserve">Call this value A.</text></g><g><path fill="none" d="M39.5 290.5 L10.5 290.5" clip-path="url(#clipPath17)" transform="translate(50,260)"/><path fill="none" d="M10.5 290.5 L10.5 190.5" clip-path="url(#clipPath17)" transform="translate(50,260)"/><path fill="none" d="M10.5 190.5 L810.5 190.5" clip-path="url(#clipPath17)" transform="translate(50,260)"/><path fill="none" d="M810.5 190.5 L810.5 10.5" clip-path="url(#clipPath17)" transform="translate(50,260)"/><path fill="none" d="M810.5 10.5 L780.5 10.5" clip-path="url(#clipPath17)" transform="translate(50,260)"/><path fill="none" d="M28.7417 284 L40 290.5 L28.7417 297" clip-path="url(#clipPath17)" transform="translate(50,260)"/></g><g><path fill="none" d="M11.5 140.5 L300.5 140.5" clip-path="url(#clipPath18)" transform="translate(850,310)"/><path fill="none" d="M300.5 140.5 L300.5 10.5" clip-path="url(#clipPath18)" transform="translate(850,310)"/><path fill="none" d="M22.2583 147 L11 140.5 L22.2583 134" clip-path="url(#clipPath18)" transform="translate(850,310)"/></g><g><path fill="none" d="M10.5 109.5 L10.5 10.5" clip-path="url(#clipPath19)" transform="translate(1140,120)"/><path fill="none" d="M17 98.7417 L10.5 110 L4 98.7417" clip-path="url(#clipPath19)" transform="translate(1140,120)"/></g><g><path fill="none" d="M209.5 20.5 L10.5 20.5" clip-path="url(#clipPath20)" transform="translate(440,250)"/><path fill="none" d="M198.7417 14 L210 20.5 L198.7417 27" clip-path="url(#clipPath20)" transform="translate(440,250)"/><text x="47.088" y="16" stroke="none" clip-path="url(#clipPath20)" font-family="sans-serif" font-size="14" transform="translate(440,250)" xml:space="preserve">[final outcomes of</text><text x="46.255" y="32.109" stroke="none" clip-path="url(#clipPath20)" font-family="sans-serif" font-size="14" transform="translate(440,250)" xml:space="preserve">some transactions</text><text x="49.514" y="48.219" stroke="none" clip-path="url(#clipPath20)" font-family="sans-serif" font-size="14" transform="translate(440,250)" xml:space="preserve">are not recorded]</text></g><g><path fill="none" d="M10.5 109.5 L10.5 10.5" clip-path="url(#clipPath21)" transform="translate(420,280)"/><path fill="none" d="M17 98.7417 L10.5 110 L4 98.7417" clip-path="url(#clipPath21)" transform="translate(420,280)"/><text x="14" y="51.945" stroke="none" clip-path="url(#clipPath21)" font-family="sans-serif" font-size="14" transform="translate(420,280)" xml:space="preserve">[final outcomes of</text><text x="14" y="68.055" stroke="none" clip-path="url(#clipPath21)" font-family="sans-serif" font-size="14" transform="translate(420,280)" xml:space="preserve">all transactions</text><text x="14" y="84.164" stroke="none" clip-path="url(#clipPath21)" font-family="sans-serif" font-size="14" transform="translate(420,280)" xml:space="preserve">are recorded]</text></g><g><path fill="none" d="M79.5 10.5 L10.5 10.5" clip-path="url(#clipPath22)" transform="translate(330,260)"/><path fill="none" d="M68.7417 4 L80 10.5 L68.7417 17" clip-path="url(#clipPath22)" transform="translate(330,260)"/></g><g><path fill="none" d="M109.5 40.5 L10.5 40.5" clip-path="url(#clipPath23)" transform="translate(50,230)"/><path fill="none" d="M10.5 40.5 L10.5 10.5" clip-path="url(#clipPath23)" transform="translate(50,230)"/><path fill="none" d="M98.7417 34 L110 40.5 L98.7417 47" clip-path="url(#clipPath23)" transform="translate(50,230)"/></g><g><path fill="none" d="M219.5 20.5 L10.5 20.5" clip-path="url(#clipPath24)" transform="translate(660,710)"/><path fill="none" d="M208.7417 14 L220 20.5 L208.7417 27" clip-path="url(#clipPath24)" transform="translate(660,710)"/><text x="40.256" y="16" stroke="none" clip-path="url(#clipPath24)" font-family="sans-serif" font-size="14" transform="translate(660,710)" xml:space="preserve">[Account Sequence is</text><text x="30.229" y="32.109" stroke="none" clip-path="url(#clipPath24)" font-family="sans-serif" font-size="14" transform="translate(660,710)" xml:space="preserve">greater than transaction</text><text x="78.8" y="48.219" stroke="none" clip-path="url(#clipPath24)" font-family="sans-serif" font-size="14" transform="translate(660,710)" xml:space="preserve">Sequence]</text></g><g><path fill="none" d="M69.5 10.5 L10.5 10.5" clip-path="url(#clipPath25)" transform="translate(620,880)"/><path fill="none" d="M58.7417 4 L70 10.5 L58.7417 17" clip-path="url(#clipPath25)" transform="translate(620,880)"/></g><g><path fill="none" d="M79.5 10.5 L10.5 10.5" clip-path="url(#clipPath22)" transform="translate(370,880)"/><path fill="none" d="M68.7417 4 L80 10.5 L68.7417 17" clip-path="url(#clipPath22)" transform="translate(370,880)"/></g><g><path fill="none" d="M10.5 119.5 L10.5 70.5" clip-path="url(#clipPath26)" transform="translate(240,740)"/><path fill="none" d="M10.5 70.5 L410.5 70.5" clip-path="url(#clipPath26)" transform="translate(240,740)"/><path fill="none" d="M410.5 70.5 L410.5 10.5" clip-path="url(#clipPath26)" transform="translate(240,740)"/><path fill="none" d="M17 108.7417 L10.5 120 L4 108.7417" clip-path="url(#clipPath26)" transform="translate(240,740)"/><text x="135.256" y="66" stroke="none" clip-path="url(#clipPath26)" font-family="sans-serif" font-size="14" transform="translate(240,740)" xml:space="preserve">[Account Sequence is</text><text x="139.079" y="82.109" stroke="none" clip-path="url(#clipPath26)" font-family="sans-serif" font-size="14" transform="translate(240,740)" xml:space="preserve">less than or equal to</text><text x="131.759" y="98.219" stroke="none" clip-path="url(#clipPath26)" font-family="sans-serif" font-size="14" transform="translate(240,740)" xml:space="preserve">transaction Sequence]</text></g><g><path fill="none" d="M11.5 10.5 L70.5 10.5" clip-path="url(#clipPath27)" transform="translate(1240,240)"/><path fill="none" d="M70.5 10.5 L70.5 310.5" clip-path="url(#clipPath27)" transform="translate(1240,240)"/><path fill="none" d="M70.5 310.5 L50.5 310.5" clip-path="url(#clipPath27)" transform="translate(1240,240)"/><path fill="none" d="M22.2583 17 L11 10.5 L22.2583 4" clip-path="url(#clipPath27)" transform="translate(1240,240)"/></g><g><path fill="none" d="M209.5 20.5 L10.5 20.5" clip-path="url(#clipPath28)" transform="translate(900,530)"/><path fill="none" d="M198.7417 14 L210 20.5 L198.7417 27" clip-path="url(#clipPath28)" transform="translate(900,530)"/><text x="53.285" y="16" stroke="none" clip-path="url(#clipPath28)" font-family="sans-serif" font-size="14" transform="translate(900,530)" xml:space="preserve">[server does not</text><text x="53.078" y="32.109" stroke="none" clip-path="url(#clipPath28)" font-family="sans-serif" font-size="14" transform="translate(900,530)" xml:space="preserve">have continuous</text><text x="62.237" y="48.219" stroke="none" clip-path="url(#clipPath28)" font-family="sans-serif" font-size="14" transform="translate(900,530)" xml:space="preserve">ledger history</text><text x="77.838" y="64.328" stroke="none" clip-path="url(#clipPath28)" font-family="sans-serif" font-size="14" transform="translate(900,530)" xml:space="preserve">from A to</text><text x="37.669" y="80.438" stroke="none" clip-path="url(#clipPath28)" font-family="sans-serif" font-size="14" transform="translate(900,530)" xml:space="preserve">LastLedgerSequence</text><text x="72.355" y="96.547" stroke="none" clip-path="url(#clipPath28)" font-family="sans-serif" font-size="14" transform="translate(900,530)" xml:space="preserve">(inclusive)]</text></g><g><path fill="none" d="M109.5 10.5 L10.5 10.5" clip-path="url(#clipPath29)" transform="translate(520,720)"/><path fill="none" d="M98.7417 4 L110 10.5 L98.7417 17" clip-path="url(#clipPath29)" transform="translate(520,720)"/></g><g><path fill="none" d="M10.5 139.5 L10.5 90.5" clip-path="url(#clipPath30)" transform="translate(420,560)"/><path fill="none" d="M10.5 90.5 L470.5 90.5" clip-path="url(#clipPath30)" transform="translate(420,560)"/><path fill="none" d="M470.5 90.5 L470.5 10.5" clip-path="url(#clipPath30)" transform="translate(420,560)"/><path fill="none" d="M17 128.7417 L10.5 140 L4 128.7417" clip-path="url(#clipPath30)" transform="translate(420,560)"/><text x="109.748" y="86" stroke="none" clip-path="url(#clipPath30)" font-family="sans-serif" font-size="14" transform="translate(420,560)" xml:space="preserve">[server has continuous ledger history</text><text x="94.606" y="102.109" stroke="none" clip-path="url(#clipPath30)" font-family="sans-serif" font-size="14" transform="translate(420,560)" xml:space="preserve">from A to LastLedgerSequence, inclusive]</text></g><g><path fill="none" d="M219.5 10.5 L10.5 10.5" clip-path="url(#clipPath31)" transform="translate(650,540)"/><path fill="none" d="M208.7417 4 L220 10.5 L208.7417 17" clip-path="url(#clipPath31)" transform="translate(650,540)"/><text x="27.748" y="22.891" stroke="none" clip-path="url(#clipPath31)" font-family="sans-serif" font-size="14" transform="translate(650,540)" xml:space="preserve">[latest validated ledger</text><text x="8.458" y="36" stroke="none" clip-path="url(#clipPath31)" font-family="sans-serif" font-size="14" transform="translate(650,540)" xml:space="preserve">is ≥ LastLedgerSequence]</text></g><g><path fill="none" d="M551.5 10.5 L620.5 10.5" clip-path="url(#clipPath32)" transform="translate(630,240)"/><path fill="none" d="M620.5 10.5 L620.5 270.5" clip-path="url(#clipPath32)" transform="translate(630,240)"/><path fill="none" d="M620.5 270.5 L10.5 270.5" clip-path="url(#clipPath32)" transform="translate(630,240)"/><path fill="none" d="M10.5 270.5 L10.5 290.5" clip-path="url(#clipPath32)" transform="translate(630,240)"/><path fill="none" d="M562.2583 17 L551 10.5 L562.2583 4" clip-path="url(#clipPath32)" transform="translate(630,240)"/><text x="34" y="249.781" stroke="none" clip-path="url(#clipPath32)" font-family="sans-serif" font-size="14" transform="translate(630,240)" xml:space="preserve">[latest validated ledger</text><text x="34" y="262.891" stroke="none" clip-path="url(#clipPath32)" font-family="sans-serif" font-size="14" transform="translate(630,240)" xml:space="preserve">is &lt; LastLedgerSequence]</text></g><g><path fill="none" d="M10.5 39.5 L10.5 10.5" clip-path="url(#clipPath33)" transform="translate(160,700)"/><path fill="none" d="M17 28.7417 L10.5 40 L4 28.7417" clip-path="url(#clipPath33)" transform="translate(160,700)"/></g><g><path fill="none" d="M10.5 99.5 L10.5 60.5" clip-path="url(#clipPath34)" transform="translate(160,560)"/><path fill="none" d="M10.5 60.5 L230.5 60.5" clip-path="url(#clipPath34)" transform="translate(160,560)"/><path fill="none" d="M230.5 60.5 L230.5 10.5" clip-path="url(#clipPath34)" transform="translate(160,560)"/><path fill="none" d="M17 88.7417 L10.5 100 L4 88.7417" clip-path="url(#clipPath34)" transform="translate(160,560)"/><text x="70.853" y="56" stroke="none" clip-path="url(#clipPath34)" font-family="sans-serif" font-size="14" transform="translate(160,560)" xml:space="preserve">[transaction is</text><text x="46.305" y="72.109" stroke="none" clip-path="url(#clipPath34)" font-family="sans-serif" font-size="14" transform="translate(160,560)" xml:space="preserve">in a validated ledger]</text></g><g><path fill="none" d="M219.5 20.5 L10.5 20.5" clip-path="url(#clipPath24)" transform="translate(400,530)"/><path fill="none" d="M208.7417 14 L220 20.5 L208.7417 27" clip-path="url(#clipPath24)" transform="translate(400,530)"/><text x="35.812" y="16" stroke="none" clip-path="url(#clipPath24)" font-family="sans-serif" font-size="14" transform="translate(400,530)" xml:space="preserve">[transaction not found,</text><text x="63.629" y="32.109" stroke="none" clip-path="url(#clipPath24)" font-family="sans-serif" font-size="14" transform="translate(400,530)" xml:space="preserve">or is found in a</text><text x="40.721" y="48.219" stroke="none" clip-path="url(#clipPath24)" font-family="sans-serif" font-size="14" transform="translate(400,530)" xml:space="preserve">non-validated ledger]</text></g><g><path fill="none" d="M109.5 10.5 L10.5 10.5" clip-path="url(#clipPath29)" transform="translate(260,540)"/><path fill="none" d="M98.7417 4 L110 10.5 L98.7417 17" clip-path="url(#clipPath29)" transform="translate(260,540)"/></g><g><path fill="none" d="M59.5 10.5 L10.5 10.5" clip-path="url(#clipPath35)" transform="translate(1010,90)"/><path fill="none" d="M48.7417 4 L60 10.5 L48.7417 17" clip-path="url(#clipPath35)" transform="translate(1010,90)"/></g><g><path fill="none" d="M59.5 10.5 L10.5 10.5" clip-path="url(#clipPath35)" transform="translate(780,90)"/><path fill="none" d="M48.7417 4 L60 10.5 L48.7417 17" clip-path="url(#clipPath35)" transform="translate(780,90)"/></g><g><path fill="none" d="M49.5 10.5 L10.5 10.5" clip-path="url(#clipPath36)" transform="translate(560,90)"/><path fill="none" d="M38.7417 4 L50 10.5 L38.7417 17" clip-path="url(#clipPath36)" transform="translate(560,90)"/></g><g><path fill="none" d="M59.5 10.5 L10.5 10.5" clip-path="url(#clipPath35)" transform="translate(330,90)"/><path fill="none" d="M48.7417 4 L60 10.5 L48.7417 17" clip-path="url(#clipPath35)" transform="translate(330,90)"/></g><g><path fill="none" d="M109.5 50.5 L10.5 50.5" clip-path="url(#clipPath37)" transform="translate(50,50)"/><path fill="none" d="M10.5 50.5 L10.5 10.5" clip-path="url(#clipPath37)" transform="translate(50,50)"/><path fill="none" d="M98.7417 44 L110 50.5 L98.7417 57" clip-path="url(#clipPath37)" transform="translate(50,50)"/></g></g></svg>